#!OML:ASF E:\emotionWalksFemale\Project 1\Capture day 1\Session 1\Female1.ASF
:FULLY-SPECIFIED
:DEGREES
1668
root 8.21007 15.7078 -32.6614 -177.327 -79.8034 -183.432
lowerback 2.36739 -3.14465 -1.42889
upperback -4.7479 -4.31941 0.887916
thorax -6.08008 -2.07988 2.04666
lowerneck -0.204431 14.1233 13.9811
upperneck 9.81548 19.376 -8.94851
head 5.22071 9.67523 -3.67634
rclavicle 6.59965e-014 1.63003e-014
rhumerus -47.1104 2.29302 -62.6536
rradius 35.4766
rwrist 14.1776
rhand 2.42068 -58.0872
rfingers 7.12502
rthumb 27.9068 993.966
lclavicle 6.59965e-014 1.63003e-014
lhumerus -40.4747 -4.72744 87.7359
lradius 39.0901
lwrist -14.0232
lhand -2.013 -27.6821
lfingers 7.12502
lthumb 23.6609 0.881783
rfemur 1.21212 17.0043 20.8909
rtibia 14.4913
rfoot -12.676 -24.4218
rtoes -8.20559
lfemur -1.18303 -7.35987 -14.8096
ltibia 42.8204
lfoot -0.855247 5.59856
ltoes 8.16373
1669
root 8.20626 15.7165 -32.7222 -176.287 -81.2515 -184.562
lowerback 2.79952 -3.00103 -1.48667
upperback -4.82665 -4.13918 0.821087
thorax -6.42083 -1.98186 2.02807
lowerneck -0.139702 14.1052 14.0485
upperneck 9.79484 19.3614 -8.97165
head 5.21095 9.67248 -3.69882
rclavicle -6.46547e-014 -1.11319e-014
rhumerus -47.3238 2.3039 -62.2772
rradius 35.5803
rwrist 13.7356
rhand 2.08874 -58.0497
rfingers 7.12502
rthumb 27.5895 993.953
lclavicle -6.46547e-014 -1.11319e-014
lhumerus -39.866 -2.71621 86.9887
lradius 38.1617
lwrist -16.5936
lhand -1.77939 -28.6819
lfingers 7.12502
lthumb 23.885 -0.147137
rfemur 1.52255 17.0502 21.0135
rtibia 14.6756
rfoot -10.5581 -24.6967
rtoes -15.9788
lfemur -1.5126 -7.19617 -14.5172
ltibia 42.8789
lfoot -0.965393 6.24697
ltoes 8.72104
1670
root 8.1982 15.7217 -32.7813 -176.335 -82.7826 -184.515
lowerback 2.99729 -2.85844 -1.13284
upperback -4.85278 -3.93504 0.686421
thorax -6.60359 -1.898 1.68929
lowerneck -0.201687 14.0935 14.2911
upperneck 9.84437 19.344 -9.03939
head 5.26506 9.66838 -3.74447
rclavicle -6.03311e-014 -6.16232e-015
rhumerus -47.5719 2.1925 -61.9757
rradius 35.6529
rwrist 13.56
rhand 2.29262 -57.9603
rfingers 7.12502
rthumb 27.7844 994.073
lclavicle -6.03311e-014 -6.16232e-015
lhumerus -40.0373 -4.11118 87.4057
lradius 38.6098
lwrist -15.7687
lhand -2.01356 -28.3536
lfingers 7.12502
lthumb 23.6604 0.210355
rfemur 1.73211 16.9877 21.3109
rtibia 14.67
rfoot -11.677 -24.8011
rtoes -10.8038
lfemur -1.9592 -6.99121 -14.0121
ltibia 43.002
lfoot -0.960367 6.32491
ltoes 5.72085
1671
root 8.18349 15.7271 -32.8353 -177.057 -84.3635 -183.627
lowerback 2.91562 -2.87264 -0.756373
upperback -4.87359 -3.93208 0.652266
thorax -6.60585 -1.91646 1.44069
lowerneck -0.0761164 14.2147 13.8531
upperneck 9.61164 19.49 -8.71531
head 5.11319 9.74432 -3.5955
rclavicle -1.28216e-014 -2.78299e-015
rhumerus -47.5902 2.4316 -61.9251
rradius 35.7014
rwrist 13.2235
rhand 1.88657 -57.9184
rfingers 7.12502
rthumb 27.3961 994.053
lclavicle -1.28216e-014 -2.78299e-015
lhumerus -39.9166 -3.69466 87.118
lradius 38.74
lwrist -16.3624
lhand -1.97053 -28.4796
lfingers 7.12502
lthumb 23.7017 0.0790147
rfemur 1.76054 16.7397 21.6184
rtibia 14.7767
rfoot -12.4898 -24.8682
rtoes -8.13778
lfemur -2.55688 -6.73809 -13.4072
ltibia 43.0827
lfoot -0.703471 6.71002
ltoes 10.006
1672
root 8.16924 15.7265 -32.8903 -177.596 -85.662 -183.301
lowerback 3.10606 -2.81473 -0.710613
upperback -4.76176 -3.84541 0.665225
thorax -6.60107 -1.87311 1.42825
lowerneck -0.0993206 14.3636 14.1614
upperneck 9.60975 19.6942 -8.79613
head 5.1783 9.85141 -3.63148
rclavicle -9.19379e-015 3.37934e-015
rhumerus -47.5264 2.54974 -61.8824
rradius 35.6981
rwrist 12.9976
rhand 0.92644 -57.9333
rfingers 7.12502
rthumb 26.4774 993.896
lclavicle -9.19379e-015 3.37934e-015
lhumerus -40.0335 -4.56083 87.4427
lradius 38.9739
lwrist -15.5363
lhand -2.31557 -28.027
lfingers 7.12502
lthumb 23.3707 0.574131
rfemur 2.27452 16.5961 21.9613
rtibia 14.9041
rfoot -13.6132 -24.5612
rtoes -4.09845
lfemur -2.67566 -6.05454 -12.8522
ltibia 43.1331
lfoot -0.39258 6.29212
ltoes 10.4881
